HIERARCHY
ROOT root
{
	OFFSET 0.000000 0.000000 0.000000
	CHANNELS 6 Xposition Yposition Zposition Zrotation Yrotation Xrotation
	JOINT lhip
	{
		OFFSET 0.058581 -0.082280 -0.017664
		CHANNELS 3 Zrotation Yrotation Xrotation
		JOINT lknee
		{
			OFFSET 0.043451 -0.386469 0.008037
			CHANNELS 3 Zrotation Yrotation Xrotation
			JOINT lankle
			{
				OFFSET -0.014790 -0.426874 -0.037428
				CHANNELS 3 Zrotation Yrotation Xrotation
				JOINT ltoe
				{
					OFFSET 0.041054 -0.060286 0.122042
					CHANNELS 3 Zrotation Yrotation Xrotation
					End Site
					{
						OFFSET 0.000000 0.000000 0.000000
					}
				}
			}
		}
	}
	JOINT rhip
	{
		OFFSET -0.060310 -0.090513 -0.013543
		CHANNELS 3 Zrotation Yrotation Xrotation
		JOINT rknee
		{
			OFFSET -0.043257 -0.383688 -0.004843
			CHANNELS 3 Zrotation Yrotation Xrotation
			JOINT rankle
			{
				OFFSET 0.019056 -0.420046 -0.034562
				CHANNELS 3 Zrotation Yrotation Xrotation
				JOINT rtoe
				{
					OFFSET -0.034840 -0.062106 0.130323
					CHANNELS 3 Zrotation Yrotation Xrotation
					End Site
					{
						OFFSET 0.000000 0.000000 0.000000
					}
				}
			}
		}
	}
	JOINT lowerback
	{
		OFFSET 0.004439 0.124404 -0.038385
		CHANNELS 3 Zrotation Yrotation Xrotation
		JOINT upperback
		{
			OFFSET 0.004488 0.137956 0.026820
			CHANNELS 3 Zrotation Yrotation Xrotation
			JOINT chest
			{
				OFFSET -0.002265 0.056032 0.002855
				CHANNELS 3 Zrotation Yrotation Xrotation
				JOINT lowerneck
				{
					OFFSET -0.013390 0.211636 -0.033468
					CHANNELS 3 Zrotation Yrotation Xrotation
					JOINT upperneck
					{
						OFFSET 0.010113 0.088937 0.050410
						CHANNELS 3 Zrotation Yrotation Xrotation
						End Site
						{
							OFFSET 0.000000 0.000000 0.000000
						}
					}
				}
				JOINT lclavicle
				{
					OFFSET 0.071702 0.114000 -0.018898
					CHANNELS 3 Zrotation Yrotation Xrotation
					JOINT lshoulder
					{
						OFFSET 0.122921 0.045205 -0.019046
						CHANNELS 3 Zrotation Yrotation Xrotation
						JOINT lelbow
						{
							OFFSET 0.255332 -0.015649 -0.022946
							CHANNELS 3 Zrotation Yrotation Xrotation
							JOINT lwrist
							{
								OFFSET 0.265709 0.012698 -0.007375
								CHANNELS 3 Zrotation Yrotation Xrotation
								End Site
								{
									OFFSET 0.000000 0.000000 0.000000
								}
							}
						}
					}
				}
				JOINT rclavicle
				{
					OFFSET -0.082954 0.112472 -0.023707
					CHANNELS 3 Zrotation Yrotation Xrotation
					JOINT rshoulder
					{
						OFFSET -0.113228 0.046853 -0.008472
						CHANNELS 3 Zrotation Yrotation Xrotation
						JOINT relbow
						{
							OFFSET -0.260127 -0.014369 -0.031269
							CHANNELS 3 Zrotation Yrotation Xrotation
							JOINT rwrist
							{
								OFFSET -0.269108 0.006794 -0.006027
								CHANNELS 3 Zrotation Yrotation Xrotation
								End Site
								{
									OFFSET 0.000000 0.000000 0.000000
								}
							}
						}
					}
				}
			}
		}
	}
}
MOTION
Frames: 12
Frame Time: 0.033333
-0.024250 1.328315 0.997869 11.940984 3.761094 81.725517 0.479972 2.901931 15.225917 -4.159724 -8.493315 1.707427 10.534134 20.299882 -21.429432 0.000000 -0.000000 0.000000 -5.872720 14.286578 -54.100009 -0.224569 -9.070763 47.862774 1.245261 -19.464099 -31.862626 0.000000 -0.000000 0.000000 2.307376 -9.597976 8.475426 1.292941 4.757252 2.054784 -1.191991 -2.037008 2.750112 6.321019 4.140205 0.283861 -0.484831 4.204929 7.756633 -30.384481 1.768675 6.385605 -56.716030 -6.039022 8.299169 10.380166 -15.147500 -6.945948 1.233965 -4.546656 -6.171258 28.200636 1.857188 9.449376 60.574362 1.892359 15.419101 -14.051998 17.999553 -6.144438 7.046947 3.323493 -9.293513 
-0.023732 1.317290 0.993614 11.305259 3.434211 82.336046 0.157368 3.319091 15.127949 -4.092978 -7.684592 2.058134 10.093645 19.963240 -22.567096 0.000000 -0.000000 0.000000 -5.494402 14.409577 -50.466705 0.006762 -5.952202 34.822588 1.929123 -18.396554 -31.960134 0.000000 -0.000000 0.000000 2.455049 -8.836687 7.639258 1.024716 4.348747 2.002481 -1.035438 -1.928636 2.831046 5.888524 3.917920 0.396769 -0.174774 4.612157 7.464847 -30.298367 2.074256 6.391237 -56.916265 -6.210952 8.305344 10.251624 -14.903472 -6.584611 1.578529 -4.631883 -6.421638 28.082612 1.631714 9.608584 60.471288 1.857228 15.668178 -14.080504 18.018837 -5.855158 6.868953 3.152592 -9.585460 
-0.023217 1.304058 0.989168 10.604360 3.307333 82.688360 0.184573 3.703424 15.448791 -4.173480 -6.885775 2.454677 9.706455 19.680665 -23.776018 0.000000 -0.000000 0.000000 -5.033439 14.360155 -47.163898 -0.095997 -4.366728 25.851937 2.295717 -17.655910 -31.698399 0.000000 -0.000000 0.000000 2.822704 -8.175921 6.904131 0.797786 4.077986 2.131460 -0.968033 -1.792065 2.677018 5.555235 3.570242 0.857112 0.101674 5.014702 7.088278 -30.297490 2.132592 6.539067 -57.062231 -6.157330 8.120425 10.101673 -14.638063 -6.186343 1.406754 -4.707841 -6.441103 27.878843 1.588556 9.957525 60.497761 1.702613 15.557641 -14.123263 17.982706 -5.561553 6.757861 3.009185 -10.037432 
-0.022625 1.288678 0.984605 9.795962 3.255333 82.854980 0.362037 4.175871 16.217570 -4.260824 -6.296557 2.652525 9.424805 19.575174 -24.809609 0.000000 -0.000000 0.000000 -4.569213 14.061337 -44.296234 0.063033 -3.975110 20.459479 2.426445 -17.060212 -31.385666 0.000000 -0.000000 0.000000 3.404000 -7.646223 6.293845 0.504239 4.014187 2.194247 -1.072971 -1.656142 2.488454 5.379179 3.191301 1.387028 0.297324 5.227920 6.905397 -30.378674 2.189447 6.634348 -57.054821 -5.930702 7.900943 9.954692 -14.484068 -5.761572 1.151802 -4.711258 -6.311699 27.692376 1.568358 10.217387 60.625918 1.481494 15.287098 -14.058483 17.764764 -5.271116 6.546194 2.884283 -10.375944 
-0.021758 1.271543 0.980190 9.080883 2.979709 83.156002 0.358154 4.836409 17.138804 -4.303484 -5.949111 2.488557 9.228811 19.371925 -25.519722 0.000000 -0.000000 0.000000 -4.058271 12.937116 -41.723682 0.289715 -3.841079 16.630818 2.622889 -16.497032 -31.087144 0.000000 -0.000000 0.000000 3.720977 -7.157263 5.413594 0.245436 3.878831 2.333886 -1.134059 -1.527818 2.326462 5.184469 2.778767 1.828198 0.458243 5.455931 6.869781 -30.439048 2.292687 6.674208 -57.176628 -5.724103 7.620865 9.862200 -14.274293 -5.411218 1.195322 -4.677762 -6.176421 27.460377 1.506173 10.311572 60.735458 1.334099 14.905768 -13.838460 17.447675 -4.830920 6.503493 2.734987 -10.099354 
-0.021073 1.253053 0.975956 8.681482 2.634660 83.450024 0.485622 5.592333 18.224377 -4.450877 -5.911527 2.199459 8.954380 18.929948 -26.078256 0.000000 -0.000000 0.000000 -3.788828 11.459273 -39.308802 0.501021 -3.808118 13.919960 2.777453 -15.987633 -30.835536 0.000000 -0.000000 0.000000 3.719618 -6.795900 4.521835 0.129197 3.587393 2.635901 -1.056650 -1.424207 2.104038 4.956797 2.416279 2.199193 0.616589 5.721623 6.742609 -30.411174 2.292123 6.791785 -57.446346 -5.501873 7.319842 9.735852 -14.334383 -4.941035 1.095900 -4.590488 -6.250578 27.210940 1.517478 10.464776 60.807040 1.270746 14.356618 -13.693500 17.318374 -4.537724 6.658986 2.615616 -9.712335 
-0.020971 1.233541 0.971372 8.471648 2.341702 83.720036 0.745479 6.205814 19.359873 -4.579922 -6.088354 2.050850 8.622726 18.489208 -26.604707 0.000000 -0.000000 0.000000 -3.890737 10.341542 -37.201746 0.546198 -3.678015 12.380803 2.828740 -15.700416 -30.610435 0.000000 -0.000000 0.000000 3.716179 -6.501676 3.909778 0.035951 3.360506 2.734018 -1.044928 -1.396630 1.903101 4.854147 2.139827 2.361550 0.752901 5.703827 6.734270 -30.349041 2.189191 6.938312 -57.568824 -5.391509 7.112192 9.535260 -14.370218 -4.531356 0.868598 -4.630946 -6.403214 27.113320 1.546457 10.572663 60.837713 1.077519 13.995298 -13.639734 17.425738 -4.515786 6.681321 2.624650 -9.586949 
-0.021505 1.212837 0.966803 8.298960 2.152040 84.007235 1.174177 6.848857 20.472177 -4.603584 -6.405062 2.132624 8.176671 18.051971 -27.049454 0.000000 -0.000000 0.000000 -3.869256 9.142053 -35.183990 0.563540 -3.445462 11.244535 2.860317 -15.452407 -30.426212 0.000000 -0.000000 0.000000 3.770459 -6.248502 3.504770 -0.042383 3.139227 2.570917 -1.043230 -1.392067 1.756980 4.762837 1.797935 2.383657 0.904423 5.589076 6.998811 -30.358308 2.130542 7.027324 -57.589122 -5.308528 6.833397 9.453746 -14.374194 -4.106489 0.949106 -4.665459 -6.437145 27.064001 1.540389 10.565017 60.784492 0.809629 13.671315 -13.461277 17.648500 -4.138759 6.716712 2.622537 -9.178509 
-0.023170 1.190747 0.962729 7.958955 1.998527 84.492526 1.662054 7.384614 21.344120 -4.606796 -6.637001 2.446318 7.597685 17.594676 -27.329038 0.000000 -0.000000 0.000000 -3.580707 7.824666 -33.557849 0.614376 -3.492677 10.533339 2.941444 -15.135132 -30.270631 0.000000 -0.000000 0.000000 3.648177 -5.969707 2.733710 0.010244 2.876846 2.738643 -0.950997 -1.396711 1.553935 4.706130 1.511754 2.454541 1.069158 5.562160 7.153598 -30.339501 2.088807 7.140493 -57.636563 -5.198033 6.571810 9.425996 -14.511590 -3.586059 1.323975 -4.714876 -6.473378 27.027192 1.548834 10.590399 60.706264 0.811976 13.245910 -13.316827 17.752299 -3.809341 6.841425 2.622042 -9.025246 
-0.026223 1.166918 0.959435 7.146373 1.782295 85.161913 1.919678 7.595675 22.055905 -4.612113 -6.616436 2.857300 6.922746 17.371658 -27.236862 0.000000 -0.000000 0.000000 -3.154421 7.155350 -32.148299 0.643092 -3.611591 9.779017 2.967757 -14.917035 -29.801825 0.000000 -0.000000 0.000000 3.288592 -5.699319 1.691915 0.130959 2.707868 3.085818 -0.855901 -1.350115 1.338889 4.833572 1.509004 2.495944 1.186658 5.475068 7.255537 -30.195131 2.313878 7.131169 -57.656152 -5.004349 6.473421 9.387503 -14.848043 -3.224692 1.223884 -4.654467 -6.745370 27.125915 1.462743 10.580597 60.635494 1.042811 13.128062 -13.341106 17.714932 -3.673412 6.832668 2.549826 -8.992080 
-0.030464 1.140843 0.956840 6.047021 1.529386 85.845451 2.071709 7.633289 22.844228 -4.623836 -6.657267 3.331929 6.128650 17.303410 -26.772278 0.000000 -0.000000 0.000000 -2.402337 6.861379 -30.700083 0.682582 -3.129359 9.321632 2.856557 -14.500788 -28.813375 0.000000 -0.000000 0.000000 2.794355 -5.446977 0.615028 0.251210 2.492374 3.323197 -0.804435 -1.336334 1.246563 5.007511 1.704758 2.384438 1.284327 5.266102 7.602267 -29.926221 2.661237 7.083014 -57.684582 -4.700537 6.287516 9.415861 -15.043360 -3.047620 0.894096 -4.613350 -6.887822 27.197467 1.253632 10.491103 60.632903 1.216756 13.213410 -13.292954 17.930821 -3.046873 6.750301 2.544480 -8.766108 
-0.035628 1.112792 0.954338 4.947218 1.342867 86.606339 2.363256 7.622865 23.715682 -4.673057 -6.822002 3.741420 5.134720 17.108454 -26.037325 0.000000 -0.000000 0.000000 -1.553289 6.804895 -29.389362 0.763909 -3.008780 9.410062 2.663222 -14.179040 -27.936856 0.000000 -0.000000 0.000000 2.353469 -5.355172 -0.553747 0.353070 2.237745 3.581664 -0.808714 -1.368190 1.071524 5.173779 1.960188 2.307064 1.310825 5.007868 7.970856 -29.694141 2.924058 7.037540 -57.647186 -4.331333 6.022191 9.552855 -14.843306 -3.086386 0.444240 -4.568666 -6.635429 27.179850 0.983760 10.394995 60.738605 1.161587 13.237737 -13.208470 18.424011 -2.239534 6.869191 2.592303 -8.925134 
